<svg width="135" height="36" viewBox="0 0 135 36" fill="none" xmlns="http://www.w3.org/2000/svg">
<g opacity="1">
<path d="M9.79525 25.1021V9.40722H14.997C20.0417 9.40722 23.517 12.591 23.517 17.2546C23.517 21.9182 20.0417 25.1021 14.997 25.1021H9.79525ZM11.6114 23.4429H14.7952C19.0776 23.4429 21.6561 21.0214 21.6561 17.2546C21.6561 13.4879 19.0776 11.0664 14.7952 11.0664H11.6114V23.4429ZM27.2461 25.1021V9.40722H34.2864C37.4478 9.40722 39.2863 11.1785 39.2863 13.7121C39.2863 15.8645 38.0307 17.5013 35.6316 17.9497L40.6764 25.1021H38.524L33.6362 18.1291H29.0622V25.1021H27.2461ZM29.0622 16.4923H34.1743C36.2594 16.4923 37.4478 15.5506 37.4478 13.7793C37.4478 12.0529 36.2594 11.0664 34.1743 11.0664H29.0622V16.4923ZM43.7336 25.1021V9.40722H54.563V11.0664H45.5497V15.8645H52.9263V17.5237H45.5497V23.4429H54.8993V25.1021H43.7336ZM62.7837 25.3711C60.3622 25.3711 58.2322 24.6312 56.9542 23.7119V21.694C58.0528 22.6581 60.3174 23.6671 62.6716 23.6671C64.981 23.6671 66.7971 22.6357 66.7971 20.842C66.7971 18.9362 64.981 18.3981 62.4698 17.6806C59.5999 16.8959 57.2457 16.0887 57.2457 13.2412C57.2457 10.9094 59.2187 9.13816 62.7389 9.13816C64.7119 9.13816 66.3935 9.65385 67.6491 10.4386V12.2996C66.3711 11.4924 64.6671 10.8422 62.7837 10.8422C60.1604 10.8422 59.1066 12.0081 59.1066 13.2861C59.1066 15.0798 61.1918 15.4834 63.4563 16.1336C65.9675 16.9183 68.6581 17.8376 68.6581 20.8196C68.6581 23.7792 65.9451 25.3711 62.7837 25.3711ZM76.8626 25.3711C74.4412 25.3711 72.3111 24.6312 71.0331 23.7119V21.694C72.1318 22.6581 74.3963 23.6671 76.7505 23.6671C79.0599 23.6671 80.876 22.6357 80.876 20.842C80.876 18.9362 79.0599 18.3981 76.5487 17.6806C73.6788 16.8959 71.3246 16.0887 71.3246 13.2412C71.3246 10.9094 73.2977 9.13816 76.8178 9.13816C78.7909 9.13816 80.4725 9.65385 81.728 10.4386V12.2996C80.45 11.4924 78.746 10.8422 76.8626 10.8422C74.2394 10.8422 73.1856 12.0081 73.1856 13.2861C73.1856 15.0798 75.2707 15.4834 77.5353 16.1336C80.0465 16.9183 82.737 17.8376 82.737 20.8196C82.737 23.7792 80.024 25.3711 76.8626 25.3711ZM102.468 25.1021V14.2265H104.262V15.8186C104.957 14.8096 106.235 13.9575 108.097 13.9575C109.89 13.9575 111.124 14.7423 111.572 16.0653C112.312 14.9217 113.747 13.9575 115.721 13.9575C118.12 13.9575 119.555 15.4374 119.555 18.3301V25.1021H117.784V18.7337C117.784 15.998 116.169 15.6392 115.182 15.6392C113.815 15.6392 112.424 16.738 111.886 17.8592C111.886 18.3301 111.909 18.644 111.909 19.1149V25.1021H110.137V18.7337C110.137 16.0204 108.523 15.6392 107.536 15.6392C106.213 15.6392 104.868 16.6259 104.262 17.7919V25.1021H102.468ZM128.277 25.3711C124.958 25.3711 122.29 23.0615 122.29 19.6755C122.29 16.4465 124.509 13.9575 127.828 13.9575C131.416 13.9575 132.918 17.1192 132.918 19.6307V20.124H124.106C124.353 22.3664 126.102 23.7791 128.635 23.7791C130.003 23.7791 131.169 23.3754 132.134 22.77V24.3396C131.326 24.9451 129.891 25.3711 128.277 25.3711ZM124.128 18.6889H131.124C131.057 17.3659 130.16 15.5495 127.739 15.5495C125.519 15.5495 124.24 17.1192 124.128 18.6889Z" fill="#FFDFF0"/>
<rect x="0.852974" y="0.852974" width="91.0398" height="34.2941" rx="10.1301" stroke="#FFDFF0" stroke-width="1.70595"/>
</g>
</svg>
